<?xml version="1.0" standalone="no"?>
<!DOCTYPE svg PUBLIC "-//W3C//DTD SVG 20010904//EN"
 "http://www.w3.org/TR/2001/REC-SVG-20010904/DTD/svg10.dtd">
<svg version="1.0" xmlns="http://www.w3.org/2000/svg"
 width="512.000000pt" height="512.000000pt" viewBox="0 0 512.000000 512.000000"
 preserveAspectRatio="xMidYMid meet">

<g transform="translate(0.000000,512.000000) scale(0.100000,-0.100000)"
fill="#000000" stroke="none">
<path d="M1195 4684 c-455 -76 -846 -364 -1045 -769 -112 -229 -140 -346 -147
-621 -7 -284 16 -429 103 -646 79 -198 167 -331 329 -495 60 -62 508 -484 995
-938 1021 -953 941 -890 1130 -890 189 0 109 -63 1130 890 487 454 937 878
1000 943 211 216 337 447 403 742 30 133 32 529 3 660 -42 195 -140 414 -246
555 -237 315 -554 508 -940 571 -119 20 -397 14 -510 -11 -287 -64 -524 -191
-735 -396 l-110 -107 -115 112 c-131 127 -224 193 -366 264 -211 106 -416 153
-657 151 -78 -1 -178 -7 -222 -15z"/>
</g>
</svg>
